<svg viewBox="0 0 24 24" xmlns="http://www.w3.org/2000/svg"><path d="M6 4C4.89543 4 4 4.89543 4 6V9C4 9.55229 3.55228 10 3 10C2.44772 10 2 9.55229 2 9V6C2 3.79086 3.79086 2 6 2H9C9.55228 2 10 2.44772 10 3C10 3.55228 9.55228 4 9 4H6Z"/><path d="M14 3C14 2.44772 14.4477 2 15 2H18C20.2091 2 22 3.79086 22 6V9C22 9.55228 21.5523 10 21 10C20.4477 10 20 9.55228 20 9V6C20 4.89543 19.1046 4 18 4H15C14.4477 4 14 3.55228 14 3Z"/><path d="M3 14C3.55228 14 4 14.4477 4 15V18C4 19.1046 4.89543 20 6 20H9C9.55229 20 10 20.4477 10 21C10 21.5523 9.55229 22 9 22H6C3.79086 22 2 20.2091 2 18V15C2 14.4477 2.44772 14 3 14Z"/><path d="M21 14C21.5523 14 22 14.4477 22 15V18C22 20.2091 20.2091 22 18 22H15C14.4477 22 14 21.5523 14 21C14 20.4477 14.4477 20 15 20H18C19.1046 20 20 19.1046 20 18V15C20 14.4477 20.4477 14 21 14Z"/><path d="M7.29289 7.29289C7.68342 6.90237 8.31658 6.90237 8.70711 7.29289L12 10.5858L15.2929 7.29289C15.6834 6.90237 16.3166 6.90237 16.7071 7.29289C17.0976 7.68342 17.0976 8.31658 16.7071 8.70711L13.4142 12L16.7071 15.2929C17.0976 15.6834 17.0976 16.3166 16.7071 16.7071C16.3166 17.0976 15.6834 17.0976 15.2929 16.7071L12 13.4142L8.70711 16.7071C8.31658 17.0976 7.68342 17.0976 7.29289 16.7071C6.90237 16.3166 6.90237 15.6834 7.29289 15.2929L10.5858 12L7.29289 8.70711C6.90237 8.31658 6.90237 7.68342 7.29289 7.29289Z"/></svg>
